<?xml version="1.0" encoding="UTF-8"?><svg id="Layer_1" xmlns="http://www.w3.org/2000/svg" viewBox="0 0 418.7 104.25"><defs><style>.cls-1{fill:#eb852f;}.cls-1,.cls-2{stroke-width:0px;}.cls-2{fill:#68732f;}</style></defs><path class="cls-1" d="m52.54,14.57c4.02,0,7.29-3.26,7.29-7.29s-3.26-7.29-7.29-7.29-7.29,3.26-7.29,7.29,3.26,7.29,7.29,7.29"/><path class="cls-1" d="m53.27,80.99c3.83-21.83,18.92-35.42,40.03-39.3l.04-34.43h-3.08c-20.48,0-37.12,17.84-37.91,38.12C51.55,25.09,34.9,7.25,14.43,7.25h-3.08l.04,34.43c21.1,3.89,36.19,17.48,40.03,39.3l.93,5.59.93-5.59Z"/><path class="cls-2" d="m83.66,103.54c11.61,0,21.02.67,21.02-10.94l.04-30.63c-27.94,0-47.18,10.17-52.38,38.25C47.14,72.15,28.06,61.97.12,61.97l-.12,30.63c0,11.61,9.41,10.94,21.02,10.94h62.64Z"/><path class="cls-2" d="m133.9.42h1.93l-7.64,21.07h-1.52L119.15.42h1.93l6.35,18.1L133.9.42Z"/><path class="cls-2" d="m140.66,2.91c0,.63-.54,1.17-1.17,1.17-.66,0-1.2-.54-1.2-1.2s.54-1.2,1.2-1.2,1.17.54,1.17,1.23Zm-.41,18.57h-1.58V6.95h1.58v14.53Z"/><path class="cls-2" d="m155.83,6.95l-5.53,14.53h-1.71l-5.37-14.53h1.64l4.61,12.38,4.74-12.38h1.61Z"/><path class="cls-2" d="m169.66,6.95h1.58v14.53h-1.58v-3.22c-1.45,2.37-3.19,3.47-5.43,3.47-3.92,0-6.73-3.13-6.73-7.52s2.78-7.52,6.7-7.52c2.31,0,4.07.95,5.46,2.94v-2.68Zm-9.22,3.1c-.82,1.14-1.29,2.69-1.29,4.26,0,3.41,2.18,5.94,5.09,5.94s5.46-2.81,5.46-6.25-2.18-5.81-5.37-5.81c-1.74,0-2.94.57-3.89,1.86Z"/><path class="cls-2" d="m178.48,2.91c0,.63-.54,1.17-1.17,1.17-.66,0-1.2-.54-1.2-1.2s.54-1.2,1.2-1.2,1.17.54,1.17,1.23Zm-.41,18.57h-1.58V6.95h1.58v14.53Z"/><path class="cls-2" d="m194.84,21.48h-1.8V.42h5.09c2.5,0,4.33.51,5.59,1.52,1.36,1.11,2.08,2.78,2.08,4.74,0,2.08-.82,3.92-2.31,5.05-1.17.92-2.68,1.29-5.08,1.29h-3.57v8.46Zm3.22-10.08c1.23,0,2.12-.09,2.91-.38,1.86-.57,3.06-2.31,3.06-4.33s-1.23-3.76-3.22-4.33c-.92-.25-1.83-.35-3.35-.35h-2.62v9.38h3.22Z"/><path class="cls-2" d="m211.23,2.91c0,.63-.54,1.17-1.17,1.17-.66,0-1.2-.54-1.2-1.2s.54-1.2,1.2-1.2,1.17.54,1.17,1.23Zm-.41,18.57h-1.58V6.95h1.58v14.53Z"/><path class="cls-2" d="m226.99,6.95h1.58v14.53h-1.58v-3.22c-1.45,2.37-3.19,3.47-5.43,3.47-3.92,0-6.73-3.13-6.73-7.52s2.78-7.52,6.7-7.52c2.31,0,4.08.95,5.46,2.94v-2.68Zm-9.22,3.1c-.82,1.14-1.29,2.69-1.29,4.26,0,3.41,2.18,5.94,5.09,5.94s5.46-2.81,5.46-6.25-2.18-5.81-5.37-5.81c-1.74,0-2.94.57-3.89,1.86Z"/><path class="cls-2" d="m235.4,6.95v2.18c1.39-1.71,2.75-2.43,4.52-2.43,1.29,0,2.43.41,3.22,1.14.92.82,1.23,1.77,1.23,3.54v10.11h-1.58v-9.41c0-1.52-.16-2.34-.6-2.91-.47-.6-1.39-.98-2.46-.98-1.23,0-2.31.44-3.16,1.33-.88.92-1.17,1.67-1.17,3.06v8.91h-1.58V6.95h1.58Z"/><path class="cls-2" d="m251.22,19.21c.03.73.19.85,1.04.85h1.33v1.42h-1.71c-1.61,0-2.21-.57-2.24-1.99v-11.06h-2.21v-1.48h2.21V2.06h1.58v4.9h2.37v1.48h-2.37v10.77Z"/><path class="cls-2" d="m257.76,14.88c.13,1.39.38,2.12,1.01,3.03,1.04,1.48,2.62,2.34,4.39,2.34,1.99,0,3.92-1.14,4.9-2.84l1.29.69c-1.07,2.18-3.54,3.63-6.16,3.63-4.17,0-7.14-3.1-7.14-7.45s2.97-7.58,7.14-7.58,7.14,3.13,7.14,7.17c0,.19-.03.57-.06,1.01h-12.51Zm10.83-1.48c-.09-1.26-.32-1.96-.85-2.81-1.01-1.48-2.72-2.4-4.58-2.4s-3.57.92-4.49,2.46c-.47.76-.69,1.42-.85,2.75h10.77Z"/><path class="cls-1" d="m124.11,53.23v.28c0,1.42,1.23,2.46,2.87,2.46s2.78-.98,2.78-2.24c0-.66-.32-1.26-.85-1.67-.54-.41-.92-.57-2.56-1.17-4.61-1.64-6.25-3.38-6.25-6.6,0-3.82,2.81-6.38,6.95-6.38s6.76,2.4,7.11,6.44h-4.36c-.16-1.77-1.04-2.62-2.75-2.62-1.55,0-2.59.88-2.59,2.21,0,.85.44,1.52,1.29,1.99.57.32.92.47,2.46,1.04,2.31.85,3.47,1.45,4.39,2.34,1.11,1.04,1.67,2.46,1.67,4.07,0,3.85-2.91,6.41-7.26,6.41s-7.14-2.53-7.11-6.57h4.2Z"/><path class="cls-1" d="m148.59,44.77h4.01v14.62h-4.01v-2.02c-1.36,1.74-2.94,2.53-5.08,2.53-4.11,0-7.04-3.19-7.04-7.64s3.1-7.99,7.36-7.99c1.99,0,3.35.69,4.77,2.37v-1.86Zm-7.83,7.42c0,2.56,1.67,4.48,3.85,4.48s4.04-2.08,4.04-4.61-1.64-4.42-4.01-4.42-3.88,1.86-3.88,4.55Z"/><path class="cls-1" d="m160.57,44.77v1.8c1.07-1.67,2.15-2.31,3.98-2.31,1.39,0,2.72.51,3.6,1.36.95.95,1.29,2.12,1.29,4.52v9.25h-4.01v-9.06c0-.82-.1-1.3-.35-1.71-.38-.6-1.14-.98-1.93-.98-1.55,0-2.59,1.17-2.59,2.87v8.88h-4.01v-14.62h4.01Z"/><path class="cls-1" d="m177.53,55.09c0,.7.25.88,1.14.95h.7v3.35h-3.19c-1.96-.06-2.68-.85-2.65-2.78v-8.53h-1.67v-3.38h1.67v-3.92h4.01v3.92h1.83v3.38h-1.83v7.01Z"/><path class="cls-1" d="m193.48,44.77h4.01v14.62h-4.01v-2.02c-1.36,1.74-2.94,2.53-5.08,2.53-4.11,0-7.04-3.19-7.04-7.64s3.1-7.99,7.36-7.99c1.99,0,3.35.69,4.77,2.37v-1.86Zm-7.83,7.42c0,2.56,1.67,4.48,3.85,4.48s4.04-2.08,4.04-4.61-1.64-4.42-4.01-4.42-3.88,1.86-3.88,4.55Z"/><path class="cls-1" d="m228.32,56.61c-2.43,2.27-4.71,3.19-7.83,3.19s-5.69-1.07-7.55-3.16c-1.8-1.99-2.84-4.83-2.84-7.74,0-6.41,4.36-10.99,10.45-10.99,3.25,0,5.46.92,7.96,3.35l-2.81,2.84c-1.71-1.55-3.16-2.18-4.93-2.18-3.7,0-6.29,2.84-6.29,6.89s2.72,6.98,6.51,6.98c1.93,0,3.41-.66,4.71-2.15l2.62,2.97Z"/><path class="cls-1" d="m233.88,53.04c.35,2.02,1.83,3.29,3.82,3.29,1.48,0,2.75-.73,3.38-1.9l3.7,1.01c-1.45,2.84-4.01,4.45-7.11,4.45-4.64,0-7.96-3.29-7.96-7.83s3.19-7.8,7.71-7.8,7.93,3.28,7.93,7.99l-.03.79h-11.43Zm7.33-2.31c-.35-1.93-1.74-3.1-3.73-3.1s-3.22,1.11-3.6,3.1h7.33Z"/><path class="cls-1" d="m260.64,57.72c-1.67,1.52-3.41,2.18-5.62,2.18-4.45,0-7.74-3.29-7.74-7.74s3.22-7.9,7.77-7.9c2.18,0,3.98.76,5.84,2.43l-2.68,2.43c-.88-.88-1.83-1.3-3-1.3-2.21,0-3.85,1.8-3.85,4.2s1.67,4.3,4.01,4.3c1.04,0,1.8-.32,2.84-1.23l2.43,2.62Z"/><path class="cls-1" d="m267.24,40.63c0,1.23-.95,2.18-2.21,2.18s-2.24-.95-2.24-2.21.95-2.24,2.24-2.24,2.21.95,2.21,2.27Zm-.22,18.76h-4.01v-14.62h4.01v14.62Z"/><path class="cls-1" d="m271,59.39v-21.07h4.01v21.07h-4.01Z"/><path class="cls-1" d="m283.22,40.63c0,1.23-.95,2.18-2.21,2.18s-2.24-.95-2.24-2.21.95-2.24,2.24-2.24,2.21.95,2.21,2.27Zm-.22,18.76h-4.01v-14.62h4.01v14.62Z"/><path class="cls-1" d="m298.19,44.77h4.01v14.62h-4.01v-2.02c-1.36,1.74-2.94,2.53-5.09,2.53-4.11,0-7.04-3.19-7.04-7.64s3.09-7.99,7.36-7.99c1.99,0,3.35.69,4.77,2.37v-1.86Zm-7.83,7.42c0,2.56,1.67,4.48,3.85,4.48s4.04-2.08,4.04-4.61-1.64-4.42-4.01-4.42-3.89,1.86-3.89,4.55Z"/><path class="cls-1" d="m336.48,47.58v1.14c0,3.25-.95,5.69-3.06,7.83-2.12,2.12-4.8,3.25-7.77,3.25-6.19,0-10.83-4.67-10.83-10.9s4.61-10.99,10.8-10.99c3.41,0,6.48,1.45,8.53,4.04l-3.25,2.56c-1.55-1.83-3.1-2.62-5.18-2.62-3.7,0-6.51,3.03-6.51,7.01s2.91,6.98,6.6,6.98c1.8,0,3.6-.79,4.71-2.12.63-.73.95-1.39,1.29-2.65h-5.88v-3.54h10.55Z"/><path class="cls-1" d="m350.6,44.77h4.01v14.62h-4.01v-2.02c-1.36,1.74-2.94,2.53-5.09,2.53-4.11,0-7.04-3.19-7.04-7.64s3.09-7.99,7.36-7.99c1.99,0,3.35.69,4.77,2.37v-1.86Zm-7.83,7.42c0,2.56,1.67,4.48,3.85,4.48s4.04-2.08,4.04-4.61-1.64-4.42-4.01-4.42-3.89,1.86-3.89,4.55Z"/><path class="cls-1" d="m362.57,44.77v2.15c.41-1.07.7-1.52,1.29-1.96.63-.44,1.49-.69,2.37-.69.09,0,.25,0,.47.03v4.11c-.32-.03-.63-.06-.85-.06-1.11,0-2.12.51-2.68,1.33-.47.66-.6,1.29-.6,2.68v7.04h-4.01v-14.62h4.01Z"/><path class="cls-1" d="m380.29,38.32h4.01v21.07h-4.01v-1.93c-1.26,1.74-2.65,2.43-4.9,2.43-4.33,0-7.23-3.1-7.23-7.68,0-2.46.82-4.52,2.34-5.94,1.39-1.3,3.16-2.02,4.96-2.02,1.99,0,3.41.63,4.83,2.12v-8.05Zm-7.87,13.93c0,2.53,1.67,4.42,3.95,4.42s3.92-1.93,3.92-4.45c0-2.65-1.64-4.58-3.89-4.58s-3.98,1.93-3.98,4.61Z"/><path class="cls-1" d="m391.47,53.04c.35,2.02,1.83,3.29,3.82,3.29,1.48,0,2.75-.73,3.38-1.9l3.7,1.01c-1.45,2.84-4.01,4.45-7.11,4.45-4.64,0-7.96-3.29-7.96-7.83s3.19-7.8,7.71-7.8,7.93,3.28,7.93,7.99l-.03.79h-11.43Zm7.33-2.31c-.35-1.93-1.74-3.1-3.73-3.1s-3.22,1.11-3.6,3.1h7.33Z"/><path class="cls-1" d="m409.83,44.77v1.8c1.07-1.67,2.15-2.31,3.98-2.31,1.39,0,2.72.51,3.6,1.36.95.95,1.29,2.12,1.29,4.52v9.25h-4.01v-9.06c0-.82-.09-1.3-.35-1.71-.38-.6-1.14-.98-1.93-.98-1.55,0-2.59,1.17-2.59,2.87v8.88h-4.01v-14.62h4.01Z"/><path class="cls-2" d="m132.33,76.23h1.58v21.07h-1.58v-2.81c-1.58,2.15-3.16,3.06-5.34,3.06-3.92,0-6.7-3.1-6.7-7.45s2.78-7.58,6.6-7.58c1.04,0,2.15.25,3.1.73.95.47,1.48.92,2.34,2.02v-9.03Zm-10.39,13.9c0,3.51,2.08,5.94,5.09,5.94s5.34-2.56,5.34-6.06-2.05-6-5.15-6-5.27,2.46-5.27,6.13Z"/><path class="cls-2" d="m141.14,78.73c0,.63-.54,1.17-1.17,1.17-.66,0-1.2-.54-1.2-1.2s.54-1.2,1.2-1.2,1.17.54,1.17,1.23Zm-.41,18.57h-1.58v-14.53h1.58v14.53Z"/><path class="cls-2" d="m171.84,93.92c-.95,1.29-1.55,1.83-2.62,2.46-1.42.85-3.19,1.29-4.96,1.29-2.87,0-5.37-1.07-7.14-3.06-1.74-1.99-2.78-4.9-2.78-7.83,0-6.29,4.2-10.93,9.89-10.93,3.1,0,5.56,1.2,7.61,3.76l-1.33,1.07c-.95-1.04-1.42-1.45-2.05-1.89-1.2-.82-2.75-1.3-4.23-1.3-4.61,0-8.02,3.95-8.02,9.32s3.44,9.22,8.12,9.22c2.5,0,4.36-.98,6.19-3.29l1.33,1.17Z"/><path class="cls-2" d="m186.06,82.77h1.58v14.53h-1.58v-3.22c-1.45,2.37-3.19,3.47-5.43,3.47-3.92,0-6.73-3.13-6.73-7.52s2.78-7.52,6.7-7.52c2.31,0,4.07.95,5.46,2.94v-2.68Zm-9.22,3.1c-.82,1.14-1.3,2.68-1.3,4.26,0,3.41,2.18,5.94,5.09,5.94s5.46-2.81,5.46-6.25-2.18-5.81-5.37-5.81c-1.74,0-2.94.57-3.88,1.86Z"/><path class="cls-2" d="m194.46,82.77v3.1c1.48-2.43,3-3.35,5.56-3.35,3.95,0,6.57,2.87,6.57,7.26,0,4.64-2.65,7.77-6.63,7.77-1.11,0-2.18-.25-3.16-.76-.98-.5-1.45-.95-2.34-2.12v9.57h-1.58v-21.48h1.58Zm0,7.52c0,3.44,2.12,5.78,5.27,5.78s5.18-2.43,5.18-6.13c0-1.93-.41-3.25-1.36-4.3-.92-1.01-2.34-1.64-3.73-1.64-3.22,0-5.37,2.53-5.37,6.29Z"/><path class="cls-2" d="m220.61,82.77v9.38c0,1.9-.35,2.87-1.36,3.85-1.01,1.01-2.4,1.55-3.88,1.55-3.19,0-5.31-2.15-5.31-5.4v-9.38h1.58v9.38c0,2.34,1.48,3.92,3.7,3.92,1.11,0,2.24-.47,2.91-1.2.57-.63.79-1.33.79-2.72v-9.38h1.58Z"/><path class="cls-2" d="m227.09,95.02c.03.73.19.85,1.04.85h1.33v1.42h-1.71c-1.61,0-2.21-.57-2.24-1.99v-11.05h-2.21v-1.48h2.21v-4.9h1.58v4.9h2.37v1.48h-2.37v10.77Z"/><path class="cls-2" d="m244.12,85.07c1.11,1.36,1.61,2.91,1.61,4.96,0,4.23-3.16,7.52-7.2,7.52-2.12,0-4.17-.95-5.5-2.53-1.01-1.2-1.58-3.03-1.58-5.05,0-2.37.69-4.17,2.12-5.5,1.33-1.26,3.16-1.96,5.05-1.96,2.18,0,4.14.92,5.5,2.56Zm-11.02,4.99c0,3.57,2.21,6,5.5,6s5.5-2.53,5.5-6.03c0-1.96-.54-3.41-1.64-4.49-.98-.95-2.43-1.55-3.82-1.55-3.32,0-5.53,2.43-5.53,6.06Z"/><path class="cls-2" d="m271.5,76.23h1.93l-7.64,21.07h-1.52l-7.52-21.07h1.93l6.35,18.1,6.48-18.1Z"/><path class="cls-2" d="m287.17,82.77h1.58v14.53h-1.58v-3.22c-1.45,2.37-3.19,3.47-5.43,3.47-3.92,0-6.73-3.13-6.73-7.52s2.78-7.52,6.7-7.52c2.31,0,4.07.95,5.46,2.94v-2.68Zm-9.22,3.1c-.82,1.14-1.29,2.68-1.29,4.26,0,3.41,2.18,5.94,5.08,5.94s5.46-2.81,5.46-6.25-2.18-5.81-5.37-5.81c-1.74,0-2.94.57-3.88,1.86Z"/><path class="cls-2" d="m292.76,97.3v-21.07h1.58v21.07h-1.58Z"/><path class="cls-2" d="m301.32,95.02c.03.73.19.85,1.04.85h1.33v1.42h-1.71c-1.61,0-2.21-.57-2.24-1.99v-11.05h-2.21v-1.48h2.21v-4.9h1.58v4.9h2.37v1.48h-2.37v10.77Z"/><path class="cls-2" d="m307.39,90.7c.13,1.39.38,2.12,1.01,3.03,1.04,1.48,2.62,2.34,4.39,2.34,1.99,0,3.92-1.14,4.9-2.84l1.3.69c-1.07,2.18-3.54,3.63-6.16,3.63-4.17,0-7.14-3.1-7.14-7.45s2.97-7.58,7.14-7.58,7.14,3.13,7.14,7.17c0,.19-.03.57-.06,1.01h-12.51Zm10.83-1.48c-.09-1.26-.32-1.96-.85-2.81-1.01-1.48-2.72-2.4-4.58-2.4s-3.57.92-4.49,2.46c-.47.76-.69,1.42-.85,2.75h10.77Z"/><path class="cls-2" d="m325.3,82.77v2.62c.47-1.04.79-1.45,1.36-1.93.76-.6,1.86-.95,2.94-.95h.63v1.55h-.54c-2.69,0-4.55,2.37-4.39,5.65v7.58h-1.58v-14.53h1.58Z"/></svg>